<?xml version="1.0" encoding="utf-8"?>
<!-- Generator: Adobe Illustrator 16.0.0, SVG Export Plug-In . SVG Version: 6.00 Build 0)  -->
<!DOCTYPE svg PUBLIC "-//W3C//DTD SVG 1.1//EN" "http://www.w3.org/Graphics/SVG/1.1/DTD/svg11.dtd">
<svg version="1.1" id="Layer_2" xmlns="http://www.w3.org/2000/svg" xmlns:xlink="http://www.w3.org/1999/xlink" x="0px" y="0px"
	 width="491.72px" height="491.73px" viewBox="62.69 158.85 491.72 491.73" enable-background="new 62.69 158.85 491.72 491.73"
	 xml:space="preserve">
<path fill-rule="evenodd" clip-rule="evenodd" fill="#DFDFDF" d="M107.62,158.93c66.64-0.07,133.27-0.05,199.91-0.05
	c67.43,0,134.85-0.1,202.28,0.07c19.2,0.05,28.69-0.1,44.23-0.1c0.37,12.15,0.36,52.38-0.21,62.05c-1.02,17.31-5.9,32.74-13.5,46.97
	c-10.55,19.73-24.41,34.9-39.75,48.35c-41.46,36.34-82.74,73.01-124.04,109.65c-12.38,10.98-24.37,22.7-37.44,32.39
	c-7.45,5.52-15.1,10.31-23.66,12.4c-8.63,2.11-16.83,0.06-24.78-4.13c-10.87-5.72-20.62-13.95-30.2-22.45
	c-50.23-44.58-100.42-89.24-150.6-133.91C93.44,295.54,80.28,277,70.31,254.94c-10.04-22.22-7.62-96.09-7.62-96.09"/>
<path fill-rule="evenodd" clip-rule="evenodd" fill="#DFDFDF" d="M62.83,650.46c-0.02-91.35,0-239.12,0-330.47
	c0-0.66,0.04-1.32,0.09-2.68c1.17,1.62,2.02,2.79,2.87,3.96c9.68,13.32,21.31,23.49,33.01,33.63
	c47.66,41.3,95.34,82.57,141.83,126.02c12.79,11.96,26.54,21.55,41.34,28.79c19.53,9.56,38.61,7.87,57.73-2.34
	c14.89-7.96,28.37-18.71,41.33-30.79c38.08-35.49,77.04-69.38,115.99-103.28c11.36-9.88,22.76-19.69,34.03-29.73
	c7.75-6.9,14.77-14.94,21.17-23.82c0.48-0.67,0.83-1.49,1.24-2.24c0.2,0.16,0.4,0.32,0.61,0.48c0,0.81,0,1.62,0,2.43
	c0,90.96,0.43,238.97,0.35,329.94"/>
</svg>
