<?xml version="1.0" encoding="utf-8"?>
<!-- Generator: Adobe Illustrator 16.0.0, SVG Export Plug-In . SVG Version: 6.00 Build 0)  -->
<!DOCTYPE svg PUBLIC "-//W3C//DTD SVG 1.1//EN" "http://www.w3.org/Graphics/SVG/1.1/DTD/svg11.dtd">
<svg version="1.1" id="Layer_1" xmlns="http://www.w3.org/2000/svg" xmlns:xlink="http://www.w3.org/1999/xlink" x="0px" y="0px"
	 width="491.725px" height="491.825px" viewBox="54.188 148.225 491.725 491.825"
	 enable-background="new 54.188 148.225 491.725 491.825" xml:space="preserve">
<path fill="#DFDFDF" d="M54.188,148.225V614.45c0,14.024,0,25.6,0,25.6l168.3-0.1c0,0,6.588,1.7,6.588-8.925s0-35.488,0-35.488
	c0-1.912,0-3.399,0-4.887c0-12.963,0-25.926,0-38.888c0-4.675,0.212-9.351,0.85-14.025c1.913-14.662,7.863-27.2,19.55-36.55
	c0.637-0.425,1.062-1.062,1.913-1.912c-1.488-0.213-2.338-0.213-3.188-0.426c-15.938-1.912-31.875-4.675-47.175-9.987
	c-35.487-12.112-59.712-35.274-71.188-71.188c-4.675-14.662-6.8-29.537-7.438-44.837c-0.425-11.688-0.425-23.587,2.125-35.062
	c3.825-18.062,11.688-34.212,23.8-48.025c1.275-1.487,2.337-2.763,1.487-5.1c-4.462-13.175-5.525-26.775-4.038-40.587
	c1.062-9.562,3.4-18.913,6.587-28.05c0.85-2.125,2.125-3.188,4.25-3.4c2.338,0,4.888-0.425,7.225,0
	c5.95,1.062,12.113,2.125,18.062,4.038c16.15,5.1,30.6,13.388,44.625,22.525c2.55,1.7,4.675,2.338,7.863,1.488
	c21.25-5.525,42.925-8.288,64.812-8.288c22.737,0,45.05,2.763,66.938,8.5c2.337,0.638,4.25,0.425,6.375-1.062
	c5.737-3.612,11.475-7.225,17.425-10.625c10.838-6.163,22.312-11.475,34.425-14.45c5.95-1.487,11.688-2.55,17.851-2.125
	c2.125,0.213,4.037,0.638,4.887,3.188c7.013,18.913,9.562,38.25,5.525,58.225c-0.85,4.462-2.125,8.925-3.4,13.388
	c0.851,1.062,1.913,2.125,2.763,3.188c14.025,16.362,22.312,35.275,24.65,56.737c2.337,22.312,0.425,44.625-5.525,66.3
	c-9.562,34.638-31.024,58.862-64.388,72.462c-13.6,5.525-27.837,8.926-42.287,11.263c-5.1,0.851-10.2,1.487-15.938,2.338
	c1.275,1.274,2.125,2.125,2.975,2.763c7.65,6.375,12.75,14.237,15.938,23.587c2.338,7.226,3.613,14.663,3.613,22.312
	c0,14.025,0,28.05,0,42.075c0,1.7,0,3.188,0,5.312c0,0-0.213,25.075,0,34.638c0.212,9.562,5.1,9.562,5.1,9.562l169.787,0.1
	c0,0,0-11.575,0-25.6V148.225"/>
</svg>
