<?xml version="1.0" encoding="utf-8"?>
<!-- Generator: Adobe Illustrator 16.0.0, SVG Export Plug-In . SVG Version: 6.00 Build 0)  -->
<!DOCTYPE svg PUBLIC "-//W3C//DTD SVG 1.1//EN" "http://www.w3.org/Graphics/SVG/1.1/DTD/svg11.dtd">
<svg version="1.1" id="Layer_1" xmlns="http://www.w3.org/2000/svg" xmlns:xlink="http://www.w3.org/1999/xlink" x="0px" y="0px"
	 width="491.725px" height="491.725px" viewBox="56.312 148.225 491.725 491.725"
	 enable-background="new 56.312 148.225 491.725 491.725" xml:space="preserve">
<path fill="#DFDFDF" d="M548.037,148.225H56.312c0,0,0,11.475,0,25.5V614.45c0,14.024,0,25.5,0,25.5h491.725c0,0,0-11.476,0-25.5
	V173.725C548.037,159.7,548.037,148.225,548.037,148.225z M195.288,584.7h-66.725V371.138h66.725V584.7z M160.225,344.575H159.8
	c-24.012,0-39.737-16.363-39.737-36.975c0-21.038,16.15-36.975,40.8-36.975c24.65,0,39.738,15.938,40.163,36.975
	C200.812,328.212,185.087,344.575,160.225,344.575z M461.763,584.7h-75.65V474.2c0-28.9-11.899-48.663-37.825-48.663
	c-19.975,0-31.024,13.388-36.125,26.138c-1.912,4.675-1.699,11.05-1.699,17.425V584.7h-74.588c0,0,1.062-195.713,0-213.562h74.8
	v33.575c4.463-14.663,28.263-35.488,66.513-35.488c47.388,0,84.575,30.6,84.575,96.9V584.7z"/>
</svg>
