<?xml version="1.0" encoding="utf-8"?>
<!-- Generator: Adobe Illustrator 16.0.4, SVG Export Plug-In . SVG Version: 6.00 Build 0)  -->
<!DOCTYPE svg PUBLIC "-//W3C//DTD SVG 1.1//EN" "http://www.w3.org/Graphics/SVG/1.1/DTD/svg11.dtd">
<svg version="1.1" id="Layer_1" xmlns="http://www.w3.org/2000/svg" xmlns:xlink="http://www.w3.org/1999/xlink" x="0px" y="0px"
	 width="77px" height="31px" viewBox="0 0 77 31" enable-background="new 0 0 77 31" xml:space="preserve">
<g>
	<path fill="#EEEEEE" d="M2.3,26.6c0,1.4,1,2.7,2.2,2.7c0.2,0,0.4,0,0.6-0.1C7,27.5,8.9,23.6,10.3,15.4c0.6-3.1,0.9-6.2,0.9-8.7
		c0-2.7-0.5-4.9-2-5.3c-2.7,0-6,8.9-6,13.9c0,2,0.3,3.2,1.6,3.2c1.6,0,2.5-1.3,2.9-1.3c0.1,0,0.2,0.1,0.2,0.3c0,0.8-1.7,3.2-4.1,3.2
		c-2.7,0-3.7-2.3-3.7-5.3c0-5.9,4.2-14.9,8.7-14.9c3.4,0,5.3,3.1,5.3,9.3c0,9.5-4.8,20.7-11,20.7c-1.7,0-2.8-1.3-2.8-2.9
		C0.3,25.9,1.4,24,2.7,24C2.9,24,3,24.1,3,24.3S2.9,24.7,2.8,24.9C2.4,25.5,2.3,26,2.3,26.6z"/>
	<path fill="#EEEEEE" d="M23.1,20.5c-1.3,2.3-3.1,3.9-5,3.9c-2.7,0-3.8-2.5-3.8-5.602c0-2.5,0.6-4.9,1.5-6.7
		c0.3-0.6,0.8-1.4,1.7-1.3c0.6-2.1,2-3.7,4.1-3.7c2.7,0,3.8,2.3,3.8,5.1c0,2.3-0.7,5-1.8,7.199c1.2,0,2.5-0.601,3.3-2.101
		c0.2-0.3,0.4-0.6,0.6-0.6c0.1,0,0.2,0.1,0.2,0.2c0,0.1,0,0.3-0.1,0.6C27.1,18.9,25.4,20.5,23.1,20.5z M20.9,20.1
		c-1.8-0.6-2.8-2-3.3-3.6c-0.2,1.1-0.4,2.2-0.4,3.1c0,1.801,0.4,3.102,1.5,3.102c0.1,0,0.2,0,0.3,0C19.7,22.7,20.3,21.6,20.9,20.1z
		 M19.1,14.1c0,2,0.6,3.9,2.2,4.9c0.7-2.4,1.3-5.4,1.3-7.5c0-1.7-0.3-3-1.1-3C20.3,8.4,19.1,11.2,19.1,14.1z"/>
	<path fill="#EEEEEE" d="M27,24.5c-0.7,0-1.5-0.5-1.5-1.5c0-0.1,0-0.2,0-0.3c0.6-5,1.4-8.4,2.9-13.7c0.2-0.6,0.7-0.9,1.2-0.9
		c0.8,0,1.6,0.6,1.6,1.5s-0.6,2.2-0.8,3.1c1.4-3.1,3.1-5.6,4.8-5.6c2,0,2.5,1.8,2.5,3c0,3.8-3.2,9.5-3.2,11.6
		c0,0.399,0.2,0.7,0.5,0.7c1.5,0,3.8-4.4,4.2-5.102c0.2-0.3,0.5-0.6,0.6-0.6c0.101,0,0.2,0.1,0.2,0.199c0,0.101,0,0.301-0.1,0.601
		c-0.4,1.2-2.8,6.8-5.7,6.8c-1.3,0-2.6-0.898-2.6-2.898c0-3,3.2-9,3.2-11.3c0-0.4-0.2-0.8-0.5-0.8c-1.2,0-4.2,5.2-5.5,11.2l-0.1,0.2
		c-0.2,0.899-0.3,1.7-0.4,2.5C28.2,24.1,27.6,24.5,27,24.5z"/>
	<path fill="#EEEEEE" d="M56.9,5.8c0,1.4-0.2,2.9-0.2,4.3c0,0.6,0.1,1.2,0.1,1.8c0,1-0.8,1.5-1.6,1.5c-1.101,0-1.8-0.7-1.8-2.2
		c0-2.3,1.3-5.4,1.3-7.7c0-0.7-0.101-1.3-0.4-1.8c-0.1,0-0.2,0-0.5,0.1c-2,0.6-3,15.4-6.8,19.3c1.2,0.2,2.5,0.602,4.4,0.602
		c3,0,6-3.602,6.398-4.301C58,17.1,58.2,17,58.3,17c0.101,0,0.2,0.1,0.2,0.3c0,0.101,0,0.3-0.1,0.5c-0.4,1.2-4.2,6.7-8.5,6.7
		c-2.4,0-3.2-0.7-4.5-0.7c-2,0-2,0.601-2.5,0.601C42.7,24.4,42.6,24.3,42.6,24c0-1,1.2-2.2,2.301-2.6C48.4,17.6,47.3,0.8,53.4,0.8
		C54.1,0.8,54.6,1.2,54.8,1.2C56.6,1.9,56.9,3.8,56.9,5.8z"/>
	<path fill="#EEEEEE" d="M66.1,21.6c0,0.5,0.2,0.801,0.5,0.801c0.7,0,1.7-1.801,3.301-5C70.1,17,70.3,16.8,70.5,16.8
		c0.1,0,0.2,0.101,0.2,0.3c0,0.102,0,0.301-0.101,0.602c-0.5,1.199-2.601,6.6-5.101,6.6c-1,0-2.3-0.6-2.3-3.1c0-0.2,0-0.4,0-0.602
		c-1.102,2.301-2.4,3.7-3.4,3.7c-1.8,0-2.6-1.899-2.6-4.5c0-5.1,2.898-12.6,6.8-12.6c1.3,0,2.2,1.4,2.2,2.5h0.199
		c0.801,0,1.801,0.7,1.801,1.9c0,0.2,0,0.3,0,0.5C67.3,16.4,66.1,20,66.1,21.6z M64.2,15.2l1.1-4.8c0-0.6-0.1-1.3-0.899-1.3
		c-2.199,0-4.301,7.8-4.301,11.3c0,1,0.2,1.6,0.602,1.6C61.9,22.1,63.4,18.9,64.2,15.2z"/>
	<path fill="#EEEEEE" d="M71.8,21.1c0,0.7,0.2,1.102,0.601,1.102c1.199,0,3.101-4,3.399-4.801C76,17,76.2,16.8,76.4,16.8
		c0.1,0,0.199,0.101,0.199,0.3c0,0.2,0,0.301-0.101,0.602c-0.5,1.199-2.399,6.6-5.2,6.6C70,24.3,68.9,23.4,68.9,20.9
		c0-2,1.3-8.2,2.6-13.102C71.7,7.3,72.2,7,72.8,7c0.8,0,1.7,0.6,1.7,1.7C74.6,10.5,71.8,18.5,71.8,21.1z M71.9,3.9
		c0-1.4,1.199-3.3,3-3.3c1.398,0,2,0.8,2,1.7c0,1.4-1.4,3.2-3.5,3.2C72.3,5.5,71.9,4.7,71.9,3.9z"/>
</g>
</svg>
